<?xml version="1.0" standalone="no"?> <!DOCTYPE svg PUBLIC "-//W3C//DTD SVG 1.0//EN" "http://www.w3.org/TR/2001/REC-SVG-20010904/DTD/svg10.dtd" > <svg xmlns="http://www.w3.org/2000/svg" width="100%" height="100%">
<defs >
<font horiz-adv-x="837" ><font-face
    font-family="BM HANNA"
    units-per-em="1000"
    panose-1="2 0 5 3 0 0 0 2 0 3"
    ascent="800"
    descent="-200"
    alphabetic="0" />
<missing-glyph horiz-adv-x="254" />
<glyph unicode=" " glyph-name="cid3" horiz-adv-x="254" />
<glyph unicode="!" glyph-name=".notdef" horiz-adv-x="340" d="M98 679H247V121H98V679ZM241 31V-90H106V31H241Z" />
<glyph unicode="&quot;" glyph-name="cid5" horiz-adv-x="389" d="M165 672L145 502H55V672H165ZM335 672L315 502H225V672H335Z" />
<glyph unicode="#" glyph-name="cid6" horiz-adv-x="720" d="M645 678L611 523H696V423H589L550 243H666V143H529L487 -51H340L383 143H257L213 -51H67L113 143H25V243H136L179 423H55V523H202L239 678H380L344 523H468L503 678H645ZM280 243H406L446 423H321L280 243Z" />
<glyph unicode="$" glyph-name="cid7" horiz-adv-x="622" d="M397 -130H251V-46Q199 -40 150 -23T56 22V174Q97 148 145 126T251 95V268Q209 281 181 290T136 308Q89 328 68 365T47 448Q47 490 61 522T103 578T167 616T251 636V708H397V632Q479 617 544 572V439Q515
463 477 481T397 511V357Q440 344 476 329T538 291T577 231T590 139Q589 97 573 66T531 14T471 -21T397 -42V-130ZM455 157Q457 181 440 197T397 225V96Q423 101 437 115T455 157ZM200 448Q200 434 214 422T251 400V512Q200 496 200 448Z" />
<glyph unicode="%" glyph-name="cid8" horiz-adv-x="725" d="M617 648L248 -21H120L492 648H617ZM601 -90H507Q489 -90 470 -85T435 -69T409 -39T398 8V130Q398 152 407 172T432 206T467 228T508 237H595Q646 237 668 205T690 119V7Q690 -15 683 -33T663 -63T635
-83T601 -90ZM566 -22Q589 -22 596 -8T604 22V116Q604 133 596 146T562 160H543Q527 160 518 155T505 142T499 125T498 107V32Q498 26 498 17T503 0T515 -15T538 -22H566ZM217 355H126Q108 355 91 360T59 376T36 406T27 453V575Q27 597 34 617T55 651T87 673T127
682H214Q265 682 292 650T319 564V452Q319 430 310 412T286 382T253 362T217 355ZM181 423Q204 423 213 437T223 467V561Q223 578 215 591T181 605H162Q146 605 137 600T124 587T118 570T117 552V477Q117 471 117 462T120 445T130 430T153 423H181Z" />
<glyph unicode="&amp;" glyph-name="cid9" horiz-adv-x="644" d="M207 -73Q177 -73 146 -65T88 -40T45 6T28 76V213Q28 242 34 260T50 290T73 310T100 330Q87 346 80 367T72 417V527Q72 561 84 589T116 637T165 668T226 679H298Q373 679 410 638T448 527V415Q448
375 438 351T402 312Q422 296 433 282T455 242L476 195L519 257L638 258L524 91L596 -61H478L443 13Q371 -73 294 -73H207ZM277 30Q304 30 329 50T390 109L352 193Q341 215 331 228T311 249T289 258T264 261H221Q192 261 174 245T156 206V90Q156 66 175 48T230
30H277ZM279 376Q308 376 321 389T334 429V530Q334 550 319 565T279 581H252Q229 581 214 566T198 530V429Q198 407 211 392T252 376H279Z" />
<glyph unicode="&apos;" glyph-name="cid10" horiz-adv-x="173" d="M145 672L125 502H35V672H145Z" />
<glyph unicode="(" glyph-name="cid11" horiz-adv-x="352" d="M312 -164H213Q171 -121 143 -75T99 21T76 124T69 236Q69 284 78 343T107 463T155 580T223 679H319Q262 575 235 465T208 238Q208 181 214 130T234 31T267 -66T312 -164Z" />
<glyph unicode=")" glyph-name="cid12" horiz-adv-x="323" d="M34 -164Q59 -114 78 -66T111 30T131 130T138 238Q138 354 111 464T27 679H123Q162 637 191 581T239 464T267 344T277 236Q277 178 270 125T247 22T203 -74T133 -164H34V-164Z" />
<glyph unicode="*" glyph-name="cid13" horiz-adv-x="545" d="M506 349V269H358L428 160L347 105L272 218L200 105L117 160L189 269H39V349H189L117 457L200 513L272 399L347 513L428 457L358 349H506Z" />
<glyph unicode="+" glyph-name="cid14" horiz-adv-x="460" d="M298 493V355H425V247H298V114H179V247H60V355H179V493H298Z" />
<glyph unicode="," glyph-name="cid15" horiz-adv-x="213" d="M81 -155L52 -126Q68 -110 81 -91T97 -41H52V60H166V-23Q166 -61 143 -96T81 -155Z" />
<glyph unicode="-" glyph-name="cid16" horiz-adv-x="418" d="M375 356V252H49V356H375Z" />
<glyph unicode="." glyph-name="cid17" horiz-adv-x="215" d="M162 60V-50H52V60H162Z" />
<glyph unicode="/" glyph-name="cid18" horiz-adv-x="420" d="M395 678L188 -51H48L260 678H395Z" />
<glyph unicode="0" glyph-name="cid19" horiz-adv-x="585" d="M234 -50Q197 -50 163 -41T103 -10T62 45T46 129V500Q46 550 68 584T123 640T196 670T268 680H314Q355 680 394 671T465 640T516 584T536 499V138Q536 97 523 63T484 3T422 -36T338 -50H234ZM259 84H301Q317
84 328 91T346 111T355 139T358 172V500Q358 517 355 533T346 562T329 582T302 590H258Q241 590 227 583T202 562T185 533T179 500V172Q179 155 179 140T185 112T209 92T259 84Z" />
<glyph unicode="1" glyph-name="cid20" horiz-adv-x="386" d="M314 680V-50H134V544H41V680H314Z" />
<glyph unicode="2" glyph-name="cid21" horiz-adv-x="574" d="M22 -50L333 315Q346 331 356 350T374 387T386 422T390 451L389 484Q389 500 380 515T356 543T324 562T291 570H264Q248 570 232 563T203 543T182 516T174 484V465H57V492Q57 534 74 570T120 632T191
674T280 689Q346 689 395 671T475 623T522 553T538 471Q538 442 535 418T524 372T503 329T470 286Q447 260 403 214T282 92H526V-50H22Z" />
<glyph unicode="3" glyph-name="cid22" horiz-adv-x="558" d="M476 679L304 450Q353 442 394 423T466 372T512 297T529 198Q529 141 510 93T453 9T360 -45T233 -63Q210 -63 182 -56T124 -36T68 -7T22 29V189Q31 168 57 147T114 110T178 83T233 73Q296 73 333 104T370
202Q370 253 344 286T278 341T193 375T109 398H108L250 590H49V679H476Z" />
<glyph unicode="4" glyph-name="cid23" horiz-adv-x="641" d="M621 309V181H460V-61H348V181H51V675H193V309H348V634H460V309H621Z" />
<glyph unicode="5" glyph-name="cid24" horiz-adv-x="605" d="M293 423Q340 417 384 402T464 357T520 282T542 169Q542 104 522 62T472 -4T411 -40T357 -56Q349 -58 333 -59T297 -62T255 -62T215 -57Q207 -56 191 -52T156 -41T115 -24T74 1V137Q81 126 94 114T125
90T163 68T205 50Q213 47 226 45T253 41T279 39T299 40Q322 43 338 54T363 82T377 116T381 151Q381 170 378 190T366 230T340 264T294 290Q266 300 237 304T180 309T126 309T76 307V680H499V537H176V429Q210 430 235 429T293 423Z" />
<glyph unicode="6" glyph-name="cid25" horiz-adv-x="560" d="M516 190V129Q516 94 504 61T466 0T404 -44T318 -62H273Q256 -62 242 -62T225 -61Q195 -58 166 -46T113 -14T71 32T45 90Q30 144 40 202T74 308L273 680H428L305 398Q353 397 392 383T458 341T501
276T516 190ZM412 139V176Q412 212 390 241T320 270L271 271Q250 271 232 264T202 243T182 212T175 175V142Q175 122 183 106T204 79T233 61T266 54H319Q359 54 385 79T412 139Z" />
<glyph unicode="7" glyph-name="cid26" horiz-adv-x="553" d="M540 678L211 -49H65L350 591H32V678H540Z" />
<glyph unicode="8" glyph-name="cid27" horiz-adv-x="573" d="M333 681Q370 681 403 670T461 638T500 587T515 518V427Q510 389 491 360T453 311Q495 291 510 257T525 185V125Q525 75 507 40T462 -17T400 -50T333 -61H237Q205 -61 171 -51T108 -18T62 40T44 125V184Q44
222 62 256T115 311Q96 331 77 360T54 427V518Q54 557 69 587T109 638T168 670T237 681H333ZM263 599Q245 599 229 593T201 575T182 549T175 518V476Q175 465 182 451T201 424T229 401T263 392H307Q325 392 341 401T368 423T386 451T393 476V520Q393 552 369 575T307
599H263ZM310 76Q346 76 371 99T396 155V206Q396 217 390 230T372 254T344 272T310 280H266Q247 280 231 273T203 254T185 230T178 206V155Q178 139 184 125T203 100T231 83T266 76H310Z" />
<glyph unicode="9" glyph-name="cid28" horiz-adv-x="536" d="M499 548Q518 481 506 414T458 293L233 -51H82L238 231Q231 231 220 232T195 234T171 238T154 242Q128 250 106 266T67 304T42 355T33 415V487Q33 527 47 562T87 624T150 665T233 680H316Q378 680
428 649T499 548ZM138 437Q138 395 160 377T215 356L279 353Q295 352 311 357T341 373T363 397T371 428V471Q371 496 363 514T342 543T313 560T281 566H220Q204 566 190 559T164 541T145 514T138 482V437Z" />
<glyph unicode=":" glyph-name="cid29" horiz-adv-x="195" d="M152 170V60H42V170H152ZM152 490V380H42V490H152Z" />
<glyph unicode=";" glyph-name="cid30" horiz-adv-x="195" d="M152 490V380H42V490H152ZM71 -45L42 -16Q58 0 71 19T87 69H42V170H156V87Q156 49 133 14T71 -45Z" />
<glyph unicode="&lt;" glyph-name="cid31" horiz-adv-x="461" d="M57 172V336L405 634V483Q340 420 286 371Q263 350 241 330T200 293T170 265T154 253Q157 253 169 243T200 216T240 178T286 135Q340 83 405 17V-129L57 172Z" />
<glyph unicode="=" glyph-name="cid32" horiz-adv-x="524" d="M472 243V143H46V243H472ZM472 443V343H46V443H472Z" />
<glyph unicode="&gt;" glyph-name="cid33" horiz-adv-x="458" d="M57 -129V17Q122 83 176 135Q199 157 221 178T261 215T292 242T308 253Q305 254 293 265T262 292T221 329T176 371Q122 420 57 483V634L405 336V172L57 -129Z" />
<glyph unicode="?" glyph-name="cid34" horiz-adv-x="523" d="M463 399L338 113H210L351 425Q357 438 359 455T359 489T351 522T333 551Q301 581 257 581Q233 581 220 574T192 551Q165 521 165 475H47Q47 562 106 621Q169 679 257 679Q303 679 345 665T419 623Q440
604 454 577T475 519T479 457T463 399ZM334 33V-82H203V33H334Z" />
<glyph unicode="@" glyph-name="cid35" horiz-adv-x="727" d="M525 223Q525 201 532 187T549 170T566 175T574 207V452Q574 471 563 488T536 518T499 538T459 546H293Q274 546 253 539T214 518T185 488T173 452V119Q173 99 182 80T208 45T247 21T293 11H631V-90H274Q241
-90 201 -80T127 -47T69 15T45 109V463Q45 512 67 551T124 619T204 663T292 679H454Q503 679 545 664T617 620T665 552T682 463V184Q682 137 663 112T616 75Q596 67 573 67T527 74T488 93T462 124Q449 106 431 97T395 87H318Q303 87 287 93T258 113T237 148T228
200V332Q228 356 236 377T259 414T294 439T338 449H384Q394 449 410 445T437 430V471H525V223ZM440 213V326Q440 346 429 361T392 377H374Q357 377 347 362T337 326V213Q337 192 345 176T383 160H392Q414 160 427 177T440 213Z" />
<glyph unicode="A" glyph-name="cid36" horiz-adv-x="700" d="M177 -50H16L276 679H417L675 -50H542L497 101H227L177 -50ZM267 187H454L363 496H361L267 187Z" />
<glyph unicode="B" glyph-name="cid37" horiz-adv-x="626" d="M44 678H341Q411 678 457 663T530 621T567 561T578 491Q578 452 568 426T544 382T513 355T485 339Q552 313 576 270T598 167Q596 112 575 72T516 4T425 -36T305 -50H44V678ZM209 381H346Q375 381 400
387T444 407T473 440T484 488Q484 537 447 561T341 586H209V381ZM213 71H358Q392 71 417 80T458 106T483 142T491 183Q491 211 481 232T454 266T414 287T366 294H213V71Z" />
<glyph unicode="C" glyph-name="cid38" horiz-adv-x="651" d="M471 173H615Q615 121 598 80T551 10T480 -34T391 -50H256Q223 -50 186 -40T118 -7T65 56T44 155V451Q44 498 60 539T108 611T183 660T283 678H393Q434 678 468 666T530 632T576 580T608 515L471 472Q458
500 434 517T380 535H304Q278 535 259 526T228 501T209 467T203 428V189Q203 164 206 144T220 108T247 85T293 76H378Q424 76 446 104T471 173Z" />
<glyph unicode="D" glyph-name="cid39" horiz-adv-x="639" d="M41 678H343Q385 678 430 668T512 632T574 559T597 441L596 200Q596 134 571 87T506 9T420 -35T326 -50H41V678ZM470 404Q470 472 437 503T320 535H202V108H329Q356 108 381 113T426 132T458 167T470
223V404Z" />
<glyph unicode="E" glyph-name="cid40" horiz-adv-x="571" d="M539 563H208V385H481V286H208V60H539V-49H43V678H539V563Z" />
<glyph unicode="F" glyph-name="cid41" horiz-adv-x="554" d="M545 579H226V379H507V282H226V-50H57V678H545V579Z" />
<glyph unicode="G" glyph-name="cid42" horiz-adv-x="628" d="M598 337V175Q598 67 552 12T412 -52Q376 -56 340 -55T257 -52Q216 -51 176 -38T105 3T53 71T33 172V449Q33 497 50 539T99 611T178 660T283 678H354Q403 678 441 666T509 632T557 581T589 515L447
472Q441 485 434 497T417 517T392 531T355 536H294Q240 536 213 507T185 438V187Q185 130 211 102T285 73H353Q388 73 408 83T439 111T453 153T456 207L455 252H337V337H598Z" />
<glyph unicode="H" glyph-name="cid43" horiz-adv-x="647" d="M217 278V-50H41V679H217V389H473V679H609V-50H473V278H217Z" />
<glyph unicode="I" glyph-name="cid44" horiz-adv-x="245" d="M197 -50H51V678H197V-50Z" />
<glyph unicode="J" glyph-name="cid45" horiz-adv-x="548" d="M349 678H505V158Q505 42 446 -14T277 -71Q186 -71 137 -45T65 23T38 117T34 222H176Q176 179 178 147T190 94T216 62T264 51Q294 51 311 60T336 83T347 117T349 158V678Z" />
<glyph unicode="K" glyph-name="cid46" horiz-adv-x="579" d="M554 123V-49L186 220V-49H38V678H186V476L541 676V512L266 349L554 123Z" />
<glyph unicode="L" glyph-name="cid47" horiz-adv-x="560" d="M203 56H535V-51H41V678H203V56Z" />
<glyph unicode="M" glyph-name="cid48" horiz-adv-x="708" d="M518 678H667V-50H518V488L360 349L204 487V-50H36V679H204L362 502L518 678Z" />
<glyph unicode="N" glyph-name="cid49" horiz-adv-x="664" d="M218 -50H41V679H218L483 174V679H629V-50H475L218 406V-50Z" />
<glyph unicode="O" glyph-name="cid50" horiz-adv-x="645" d="M402 -50H254Q221 -50 183 -40T111 -7T57 55T35 149V462Q35 511 54 551T105 619T181 663T272 679H374Q423 679 465 664T537 620T585 552T602 463V146Q602 102 584 66T536 4T471 -36T402 -50ZM348 70Q396
70 425 95T454 169V452Q454 471 448 488T428 518T396 538T349 546H293Q266 546 246 538T211 517T190 487T183 451V169Q183 128 206 99T285 70H348Z" />
<glyph unicode="P" glyph-name="cid51" horiz-adv-x="628" d="M595 430Q595 371 576 331T523 266T442 230T338 218H196V-50H37V680H337Q373 680 417 673T501 640T568 565T595 430ZM323 312Q382 312 414 340T447 428Q447 488 420 517T332 547H196V312H323Z" />
<glyph unicode="Q" glyph-name="cid52" horiz-adv-x="691" d="M586 58Q612 27 636 -1T685 -50H534Q529 -46 523 -40Q518 -35 511 -28T495 -11Q484 -21 469 -28T438 -40T404 -47T373 -50H255Q221 -50 182 -39T110 -1T54 66T32 166V468Q32 516 47 557T94 629T173
678T284 696H389Q435 696 478 681T554 637T608 566T628 468V167Q628 145 624 129T614 99T600 76T586 58ZM344 76Q364 76 382 78T418 86Q391 110 374 135T348 185T335 232T331 271H457Q457 239 470 207T506 153Q508 159 511 167T514 182V438Q514 492 479 524T382
557H295Q241 557 212 527T183 458V192Q183 171 187 150T202 113T233 86T285 76H344Z" />
<glyph unicode="R" glyph-name="cid53" horiz-adv-x="643" d="M600 -50H429Q436 -37 440 -24T446 4T448 40T449 88Q449 125 445 152T427 198T388 226T321 235H208V-50H35V678H382Q454 678 498 655T566 599T597 531T605 472Q605 412 579 365T498 300Q520 290 539
279T571 249T592 198T600 115V-50ZM342 358Q401 358 430 380T459 457Q459 471 455 487T440 518T407 542T353 552H208V358H342Z" />
<glyph unicode="S" glyph-name="cid54" horiz-adv-x="636" d="M37 26V187Q91 152 156 126T300 100Q327 100 352 103T398 114T432 135T449 168Q452 192 438 209T402 239T358 258T320 269Q242 289 194 304T131 328Q38 380 38 476Q38 527 62 565T126 628T213 666T308
679Q374 679 436 662T551 607V467Q530 485 505 501T451 530T393 548T334 552Q285 547 256 531T227 476Q227 457 244 442T284 416T331 396T369 384Q420 369 463 354T537 316T584 256T599 162Q597 105 569 65T497 0T403 -38T306 -50Q239 -50 167 -30T37 26Z" />
<glyph unicode="T" glyph-name="cid55" horiz-adv-x="664" d="M17 679H649V525H417V-50H262V525H17V679Z" />
<glyph unicode="U" glyph-name="cid56" horiz-adv-x="667" d="M198 674V195Q198 181 201 166T214 138T240 116T282 107H382Q407 107 424 115T451 137T466 167T471 201V674H632V166Q632 109 614 68T564 1T492 -37T405 -50H272Q218 -50 173 -33T97 16T49 91T36 186V674H198Z"
/>
<glyph unicode="V" glyph-name="cid57" horiz-adv-x="714" d="M10 679H189Q225 537 253 423Q265 375 276 328T297 244T312 182T318 154Q319 157 328 181T352 243T383 328T418 423Q459 537 512 679H707L403 -50H235L10 679Z" />
<glyph unicode="W" glyph-name="cid58" horiz-adv-x="963" d="M803 679H948L708 -50H586L482 209L378 -50H256L16 679H197L351 193L459 511H505L649 157L803 679Z" />
<glyph unicode="X" glyph-name="cid59" horiz-adv-x="670" d="M660 -50H443L309 198L180 -50H9L223 330L22 678H236L355 461L468 678H629L443 345L660 -50Z" />
<glyph unicode="Y" glyph-name="cid60" horiz-adv-x="673" d="M654 678L429 208V-50H235V219L13 678H191L341 340L483 678H654Z" />
<glyph unicode="Z" glyph-name="cid61" horiz-adv-x="576" d="M549 -50H28V101L359 576H28V679H548V585L191 102H549V-50Z" />
<glyph unicode="[" glyph-name="cid62" horiz-adv-x="320" d="M289 719V629H163V-10H289V-100H47V719H289Z" />
<glyph unicode="\" glyph-name="cid63" horiz-adv-x="420" d="M395 678L168 -51H28L260 678H395Z" />
<glyph unicode="]" glyph-name="cid64" horiz-adv-x="354" d="M289 719V-100H47V-10H173V629H47V719H289Z" />
<glyph unicode="^" glyph-name="cid65" horiz-adv-x="504" d="M168 451H14L170 685H306L462 451H340Q307 502 290 528T264 568Q254 582 254 584L168 451Z" />
<glyph unicode="_" glyph-name="cid66" horiz-adv-x="553" d="M485 2V-88H59V2H485Z" />
<glyph unicode="`" glyph-name="cid67" horiz-adv-x="221" d="M151 672L181 472H85L35 672H151Z" />
<glyph unicode="a" glyph-name="cid68" horiz-adv-x="533" d="M442 138Q442 95 458 42T507 -62H389L362 -4Q344 -26 321 -37T273 -49H154Q133 -49 111 -41T70 -17T40 26T28 88V269Q28 298 38 323T66 368T111 399T172 410H226Q233 410 245 409T270 403T295 391T318
371V427H442V138ZM298 241Q298 264 291 280T273 305T249 319T224 324H197Q173 324 156 305T139 261V101Q139 93 140 82T148 60T165 43T197 36H230Q260 36 279 50T298 101V241Z" />
<glyph unicode="b" glyph-name="cid69" horiz-adv-x="483" d="M253 427H321Q346 427 369 418T411 393T440 354T451 303V87Q451 58 438 34T404 -10T357 -39T304 -50H251Q226 -50 207 -43T171 -22V-50H40V678H171V398Q185 411 204 419T253 427ZM249 69H295Q333 69
350 87T367 137V277Q367 313 347 332T295 351H251Q213 351 196 331T178 286V129Q178 117 184 106T201 87T224 74T249 69Z" />
<glyph unicode="c" glyph-name="cid70" horiz-adv-x="445" d="M313 93V110H415V86Q415 56 403 31T371 -12T329 -40T283 -50H179Q156 -50 130 -43T82 -21T45 21T30 86V284Q30 315 46 338T86 377T139 400T196 408H257Q285 408 310 396T356 363T390 319T408 270L303
256Q298 277 279 290T237 304H202Q190 304 178 300T155 287T139 269T132 247V103Q132 95 137 85T151 65T174 49T202 42H244Q275 42 294 57T313 93Z" />
<glyph unicode="d" glyph-name="cid71" horiz-adv-x="494" d="M236 427Q264 427 280 423T318 408V678H449V-50H318V-15Q301 -31 280 -40T234 -50H185Q147 -50 118 -40T69 -10T39 33T28 87V303Q28 331 39 353T68 392T109 418T158 427H236V427ZM240 59Q265 59 288
76T311 126V276Q311 300 294 320T238 341H203Q172 341 152 322T131 267V135Q131 104 143 82T193 59H241H240Z" />
<glyph unicode="e" glyph-name="cid72" horiz-adv-x="497" d="M269 426Q304 426 336 415T392 384T431 335T446 269V156H149V110Q149 101 152 88T165 64T190 44T231 36H270Q342 36 342 102H455V72Q455 36 441 13T404 -25T351 -44T289 -50H193Q168 -50 142 -43T92
-20T51 24T28 92V269Q28 302 43 330T83 380T141 414T212 426H269ZM149 231H332V261Q332 274 326 286T308 308T283 323T255 329H223Q209 329 196 324T172 309T155 287T149 261V231Z" />
<glyph unicode="f" glyph-name="cid73" horiz-adv-x="334" d="M316 300V214H212V-50H95V214H15V300H95V429Q95 488 128 510T210 533H304V440H247Q212 440 212 398V300H316Z" />
<glyph unicode="g" glyph-name="cid74" horiz-adv-x="462" d="M428 427V-95Q428 -134 413 -160T375 -202T326 -226T278 -233H175Q154 -233 131 -225T90 -200T59 -157T46 -96H161Q162 -106 164 -116T171 -134T186 -147T209 -152H252Q275 -152 289 -138T304 -106V-19Q295
-29 275 -34T242 -40H166Q137 -40 113 -31T69 -6T40 34T29 85V253Q29 282 40 307T71 351T117 381T173 392H235Q269 392 304 374V427H428ZM238 36Q261 36 279 50T297 102V245Q297 277 275 291T228 306H207Q177 306 159 289T141 239V97Q141 76 154 56T197 36H238Z"
/>
<glyph unicode="h" glyph-name="cid75" horiz-adv-x="518" d="M372 226Q372 253 366 270T348 297T324 311T297 315H250Q241 315 229 313T207 305T189 292T182 274V-50H47V679H182V404Q197 412 218 418T262 425H316Q346 425 375 415T429 384T468 328T483 244V-50H372V226Z" />
<glyph unicode="i" glyph-name="cid76" horiz-adv-x="255" d="M65 516V634H186V516H65ZM65 -50V425H186V-50H65Z" />
<glyph unicode="j" glyph-name="cid77" horiz-adv-x="326" d="M133 -50V425H246V-59Q246 -101 229 -137T182 -201T115 -243T36 -259V-146Q81 -138 107 -115T133 -50ZM246 517H130V634H246V517Z" />
<glyph unicode="k" glyph-name="cid78" horiz-adv-x="475" d="M446 429V294L267 189L446 83V-53L176 102V-50H49V678H176V279L446 429Z" />
<glyph unicode="l" glyph-name="cid79" horiz-adv-x="242" d="M188 -50H57V679H188V-50Z" />
<glyph unicode="m" glyph-name="cid80" horiz-adv-x="697" d="M555 -50V218Q555 249 544 272T503 297Q447 299 447 216V-50H337V218Q337 249 321 273T270 297Q243 297 227 288T202 265T191 232T188 196V-50H43V436H188V384Q193 392 212 399T248 407H298Q325 407
349 395T389 363Q403 383 429 395T476 407H521Q549 407 573 395T614 360T642 306T652 237V-50H555Z" />
<glyph unicode="n" glyph-name="cid81" horiz-adv-x="528" d="M388 -50V217Q388 232 383 247T367 273T345 291T319 298H251Q240 298 229 293T207 279T191 258T184 233V-50H37V437H184V397Q198 405 217 410T253 416H326Q360 416 390 404T442 370T477 316T490 243V-50H388Z" />
<glyph unicode="o" glyph-name="cid82" horiz-adv-x="493" d="M190 -50Q158 -50 129 -41T77 -14T42 33T29 101V279Q29 310 43 337T82 384T140 415T210 426H272Q314 426 348 414T408 382T446 334T460 275V91Q460 60 449 34T417 -10T367 -39T302 -50H190ZM267 41Q284
41 296 47T317 63T330 84T334 107V249Q334 273 315 295T260 318H232Q218 318 205 314T180 302T161 280T154 248V112Q154 104 156 92T166 68T187 49T222 41H267Z" />
<glyph unicode="p" glyph-name="cid83" horiz-adv-x="504" d="M315 434Q345 434 372 423T420 392T453 347T465 292V80Q465 52 452 30T419 -8T373 -32T322 -40H229Q208 -40 192 -34T164 -19V-259H33V441H164V406Q181 419 205 426T255 434H315ZM367 231Q367 276
347 295T295 315H240Q228 315 216 310T194 296T178 276T171 253V119Q171 87 187 68T233 49H289Q304 49 318 52T343 65T360 88T367 125V231Z" />
<glyph unicode="q" glyph-name="cid84" horiz-adv-x="499" d="M238 434Q263 434 287 427T329 406V441H460V-259H329V-19Q318 -28 302 -34T264 -40H171Q146 -40 121 -32T75 -9T41 29T28 80V292Q28 321 40 346T73 391T121 422T178 434H238ZM126 125Q126 103 132
89T150 65T175 53T204 49H260Q289 49 305 68T322 119V253Q322 265 316 276T300 296T278 310T253 315H198Q166 315 146 296T126 231V125Z" />
<glyph unicode="r" glyph-name="cid85" horiz-adv-x="443" d="M414 428V301Q393 301 365 299T305 291T240 271T176 235V-50H39V426H176V359Q191 370 213 382T264 403T331 420T414 428Z" />
<glyph unicode="s" glyph-name="cid86" horiz-adv-x="471" d="M36 -6V87Q84 67 132 49T226 35Q240 35 253 36T276 42T295 54T306 77Q310 94 303 107T282 131T253 147T225 156Q185 166 151 175T91 200T52 238T37 297Q37 345 63 376T130 423T215 442T300 436Q329
429 356 419T406 392V291Q389 305 373 315T334 336Q319 343 301 347T265 352T230 349T198 334Q187 325 184 315T184 294T196 276T215 264Q256 251 287 241T354 216Q382 204 399 189T425 157T437 120T440 82Q440 43 421 15T371 -31T303 -57T229 -65Q175 -65 129
-50T36 -6Z" />
<glyph unicode="t" glyph-name="cid87" horiz-adv-x="405" d="M385 435V336H278V-50H131V336H25V435H131V649H278V435H385Z" />
<glyph unicode="u" glyph-name="cid88" horiz-adv-x="528" d="M333 426H490V-50H347V-8Q322 -34 295 -42T246 -50H205Q172 -50 142 -42T89 -13T53 42T39 130V426H161V160Q161 109 174 86T225 63H265Q296 63 314 85T333 152V426Z" />
<glyph unicode="v" glyph-name="cid89" horiz-adv-x="635" d="M411 425H618L408 -50H225L14 425H179Q223 323 246 268T280 188T293 158T295 154L411 425Z" />
<glyph unicode="w" glyph-name="cid90" horiz-adv-x="773" d="M565 425H750L569 -50H441L378 115L315 -50H194L13 425H155Q180 360 204 297T254 168Q255 172 260 185T273 216T288 257T306 303L260 425H366Q391 360 415 297T465 168L565 425Z" />
<glyph unicode="x" glyph-name="cid91" horiz-adv-x="611" d="M589 426L401 185L582 -50H389L275 98L175 -50H19L184 189L19 426H181L279 282L390 426H589Z" />
<glyph unicode="y" glyph-name="cid92" horiz-adv-x="589" d="M570 426L297 -333H114L209 -69L21 426H151L268 107L384 426H570Z" />
<glyph unicode="z" glyph-name="cid93" horiz-adv-x="561" d="M264 82H517V-50H31L278 339H40V426H514L264 82Z" />
<glyph unicode="{" glyph-name="cid94" horiz-adv-x="365" d="M329 699V629H275Q255 629 249 621T243 593V388L155 336Q144 326 143 309T151 280L243 205V-5Q243 -24 249 -31T274 -39H329V-99H203Q185 -99 170 -93T142 -76T124 -53T117 -26V189L34 273Q28 280
25 290T21 310T24 330T33 346L117 416V626Q117 639 122 652T137 675T162 692T197 699H329Z" />
<glyph unicode="|" glyph-name="cid95" horiz-adv-x="303" d="M224 -90H80V678H224V-90Z" />
<glyph unicode="}" glyph-name="cid96" horiz-adv-x="365" d="M158 699Q178 699 193 693T218 676T233 652T238 626V416L322 346Q328 340 331 331T334 311T331 290T321 273L238 189V-26Q238 -40 232 -53T213 -76T186 -92T152 -99H26V-39H81Q100 -39 106 -32T112
-5V205L204 280Q213 291 212 308T200 336L112 388V593Q112 613 106 621T80 629H26V699H158Z" />
<glyph unicode="~" glyph-name="cid97" horiz-adv-x="596" d="M563 346Q545 294 513 258T436 221Q395 221 365 236T309 270T261 305T209 322Q179 322 145 306T90 248L41 313Q70 369 112 400T203 434Q240 436 266 421T316 387T365 353T426 338Q446 339 459 347T480
368T493 392T500 414L563 346Z" />
</font>
</defs>
</svg>
